<?xml version="1.0" encoding="UTF-8"?>
<svg id="Layer_1" xmlns="http://www.w3.org/2000/svg" version="1.1" viewBox="0 0 95 95">
  <!-- Generator: Adobe Illustrator 30.4.0, SVG Export Plug-In . SVG Version: 2.1.4 Build 226)  -->
  <defs>
    <style>
      .st0 {
        fill: #fff;
      }
    </style>
  </defs>
  <path class="st0" d="M30.1,49.95c.2-.24.41-.47.64-.68-2.6-1.62-5.83-5.89-6.19-11.22-.41.41-.82.95-1.09,1.59-.36.87-.85,2.64,0,4.65.92,2.21,3.21,4.15,6.65,5.66h0ZM52.4,43.91v.06c.07-.04.14-.07.2-.12-.06.03-.13.05-.2.05ZM29.7,73.07c-.35-.37-.86-.55-1.57-.55-.26,0-.52-.12-.69-.32s-.25-.47-.21-.72l.41-2.91c.04-.25.17-.47.38-.62l3.56-2.45c.15-.1.33-.16.51-.16.04,0,3.58-.07,5.87-2.45,1.4-1.46,2.07-3.51,2-6.09-.02-.5.38-.92.88-.93.47-.03.92.37.94.88.05,1.56-.15,2.97-.58,4.22h7.03v-15.77l-12.15,3.07c-1.1.28-2.12.76-3,1.4-.05.06-.13.11-.2.16,0,0-.03.02-.04.02-2.28,1.75-3.66,4.55-3.5,7.55l.21,4.24c0,.28-.11.57-.32.75l-3.07,2.58c-.19,1.31-.64,4.26-1.38,6.04l1.23,2.95h4.13c-.07-.3-.21-.62-.45-.88h0ZM71.14,35.58l-1.58-.33c-.54-.12-1.02-.38-1.39-.78l-3.25-3.48c-.39-.42-.93-.68-1.51-.75l-3.02-.32c-.77-.07-1.5.03-2.18.31-.86.34-2.15.98-3.5,2.09-.12.09-.15.2-.16.28,0,.12.03.24.11.33l3.92,4.87c.24.3.55.24.67.19s.4-.18.4-.57v-5.62c0-.5.41-.91.91-.91s.91.41.91.91v5.62c0,1.04-.64,1.94-1.62,2.29-.98.34-2.04.05-2.69-.77l-1.6-1.99-.27,2.71c-.1,1.01-.48,1.95-1.07,2.73v4.99h9.61c-.23-.69-.55-1.39-.94-2.08-.51-.91-.48-2.02.06-2.95.59-1.02,1.7-1.65,2.86-1.65h2.1c.82,0,1.57-.37,2.06-1.03l1.81-2.36c.23-.3.28-.68.15-1.04-.14-.36-.43-.61-.8-.69h0ZM64.32,49.2h-11.93v-5.23c-.39.21-.81.38-1.26.49l-1.09.27v16.23h2.34v-9.41h12.09c.04-.75-.02-1.53-.16-2.35h0ZM60.07,60.46c.23-.19,3.29-2.9,4.18-7.08h-10.03v8.31l5.44,12.26h4.75c-.45-1.63-2.05-1.72-2.26-1.72-.45,0-.81-.34-.88-.78l-1.58-10.1c-.04-.26.04-.53.21-.73.05-.06.11-.11.17-.16h0ZM27.79,21.36c-.34.37-.3.95.07,1.29l22.67,20.08.16-.04c.6-.16,1.14-.46,1.58-.86l-23.19-20.56c-.37-.33-.96-.3-1.29.08h0Z"/>
</svg>