<?xml version="1.0" encoding="UTF-8"?>
<svg id="Layer_1" xmlns="http://www.w3.org/2000/svg" version="1.1" viewBox="0 0 95 95">
  <!-- Generator: Adobe Illustrator 30.4.0, SVG Export Plug-In . SVG Version: 2.1.4 Build 226)  -->
  <defs>
    <style>
      .st0 {
        fill: #fff;
      }
    </style>
  </defs>
  <path class="st0" d="M71.08,47.5c0,11.89-9.61,21.76-22.24,23.72,9.19-2.6,16.02-12.23,16.02-23.72s-6.83-21.11-16.02-23.72c12.63,1.96,22.24,11.83,22.24,23.72ZM41.79,29.6c7.84,1.97,13.66,9.23,13.66,17.9s-5.82,15.94-13.66,17.9c10.77-1.48,18.96-8.93,18.96-17.9s-8.19-16.42-18.96-17.9ZM23.92,59.79h8.51c8.55,0,14.69-4.87,14.69-12.85s-5.22-12.42-14.07-12.42h-9.13v25.27ZM29.79,54.84v-15.38h2.68c5.45,0,8.4,2.76,8.4,7.67,0,4.14-2.42,7.71-8.28,7.71h-2.8Z"/>
</svg>