<?xml version="1.0" encoding="UTF-8"?>
<svg id="Layer_1" xmlns="http://www.w3.org/2000/svg" version="1.1" viewBox="0 0 95 95">
  <!-- Generator: Adobe Illustrator 30.4.0, SVG Export Plug-In . SVG Version: 2.1.4 Build 226)  -->
  <defs>
    <style>
      .st0 {
        fill: #fff;
      }
    </style>
  </defs>
  <path class="st0" d="M46.81,24.18c-4.15,0-8.12,1.74-11.05,4.84s-4.58,7.31-4.58,11.69c0,.84.43,1.62,1.12,2.05.69.42,1.54.42,2.23,0,.69-.42,1.12-1.2,1.12-2.05,0-3.13,1.18-6.14,3.27-8.35,2.09-2.21,4.93-3.46,7.9-3.46s5.8,1.24,7.9,3.46c2.09,2.21,3.27,5.22,3.27,8.35,0,2.14-.55,4.23-1.59,6.07l-7.95,17.55c-.8,1.46-2.27,2.36-3.86,2.36-1.18,0-2.32-.5-3.16-1.38-.84-.89-1.31-2.09-1.31-3.34,0-.84-.43-1.62-1.12-2.05-.69-.42-1.54-.42-2.23,0-.69.42-1.12,1.2-1.12,2.05,0,1.66.41,3.29,1.2,4.72.78,1.44,1.91,2.63,3.27,3.46,1.36.83,2.9,1.27,4.47,1.27,1.6,0,3.16-.46,4.54-1.32,1.37-.86,2.51-2.09,3.28-3.57l7.95-17.55c1.38-2.51,2.11-5.36,2.1-8.27,0-2.9-.72-5.75-2.09-8.27s-3.35-4.6-5.72-6.05-5.07-2.22-7.82-2.22h0ZM46.81,38.35c.59,0,1.16.25,1.58.69s.65,1.04.65,1.67c0,.84.43,1.62,1.12,2.05.69.42,1.54.42,2.23,0,.69-.42,1.12-1.2,1.12-2.05,0-2.53-1.28-4.87-3.35-6.14-2.07-1.27-4.63-1.27-6.7,0-2.07,1.27-3.35,3.6-3.35,6.14,0,1.41.39,2.79,1.14,3.97.31.46.66.89,1.05,1.28l.45.52c.24.39.38.84.38,1.31s-.13.92-.38,1.31c-.34.51-.47,1.15-.36,1.76.1.62.44,1.16.92,1.52.37.28.82.42,1.27.43.73,0,1.41-.38,1.83-1.02.76-1.18,1.17-2.57,1.17-4s-.41-2.82-1.17-4c-.23-.35-.5-.68-.78-.99l-.31-.33c-.13-.13-.25-.27-.36-.43-.25-.39-.38-.85-.38-1.32,0-.63.24-1.23.65-1.67.42-.44.99-.69,1.58-.69h0Z"/>
  <g>
    <path class="st0" d="M65.94,18.79l-1.81,1.81-1.81,1.81-1.81,1.81-1.11,1.11c1.96,1.57,3.63,3.49,4.89,5.67,1.33,2.3,2.18,4.84,2.53,7.45l.33-.33,1.81-1.81,1.81-1.81,1.81-1.81,1.81-1.81,1.81-1.81.3-10.58-10.58.3Z"/>
    <path class="st0" d="M34.47,70.68l-1.78,1.9-1.81,1.81-1.81,1.81-10.58.3.3-10.58,1.81-1.81,1.81-1.81,1.81-1.81,1.81-1.81,1.81-1.81.02-.02,6.64-6.4,2.34.96s-5.99,5.55-5.57,11.45,2.53,7.31,3.19,7.82Z"/>
  </g>
</svg>