<?xml version="1.0" encoding="UTF-8"?>
<svg id="Layer_1" xmlns="http://www.w3.org/2000/svg" version="1.1" viewBox="0 0 95 95">
  <!-- Generator: Adobe Illustrator 30.4.0, SVG Export Plug-In . SVG Version: 2.1.4 Build 226)  -->
  <defs>
    <style>
      .st0 {
        fill: #fff;
      }
    </style>
  </defs>
  <path class="st0" d="M73.21,36.63c-.35-3.47-3.66-6.46-7.15-6.64-12.44-.57-24.69-.57-37.13,0-3.49.17-6.8,3.17-7.15,6.64-.69,7.23-.69,14.51,0,21.74.35,3.47,3.66,6.46,7.15,6.64,12.44.57,24.69.57,37.13,0,3.49-.17,6.8-3.17,7.15-6.64.69-7.23.69-14.51,0-21.74ZM38.84,58.77c-7.69,0-11.67-4.44-11.67-10.57s4.72-10.89,12.24-10.89c2.5,0,4.52.38,6.07.98v4.44c-1.85-.92-3.84-1.4-5.94-1.4-4.79,0-6.88,3.21-6.88,6.79,0,3.9,2.63,6.6,6.81,6.6,2.33,0,3.95-.63,5.6-1.56l1.42,3.81c-2.73,1.4-5.3,1.78-7.66,1.78ZM60.86,58.77c-7.69,0-11.67-4.44-11.67-10.57s4.72-10.89,12.24-10.89c2.5,0,4.52.38,6.07.98v4.44c-1.85-.92-3.84-1.4-5.94-1.4-4.79,0-6.88,3.21-6.88,6.79,0,3.9,2.63,6.6,6.81,6.6,2.33,0,3.95-.63,5.6-1.56l1.42,3.81c-2.73,1.4-5.3,1.78-7.66,1.78Z"/>
</svg>