<?xml version="1.0" encoding="UTF-8"?>
<svg id="Layer_1" xmlns="http://www.w3.org/2000/svg" version="1.1" viewBox="0 0 95 95">
  <!-- Generator: Adobe Illustrator 30.4.0, SVG Export Plug-In . SVG Version: 2.1.4 Build 226)  -->
  <defs>
    <style>
      .st0 {
        fill: #fff;
      }
    </style>
  </defs>
  <path class="st0" d="M58.33,66.48c-1.15-1.35-3.18-1.53-4.53-.38-2.37,2.01-5.39,3.12-8.51,3.12-7.28,0-13.2-5.92-13.2-13.2,0-2.64.76-5.17,2.23-7.34.99-1.47.6-3.48-.89-4.47-1.47-.99-3.48-.6-4.47.89-2.17,3.24-3.34,7.02-3.34,10.95,0,10.82,8.81,19.64,19.64,19.64,4.65,0,9.13-1.65,12.68-4.65,1.37-1.17,1.53-3.2.38-4.55h0Z"/>
  <path class="st0" d="M69.23,67.69l-5.31-16.72c-.38-1.21-1.51-2.01-2.76-2.01h-16.88v-5.49h11.25c1.61,0,2.9-1.29,2.9-2.9s-1.29-2.9-2.9-2.9h-11.25v-6.28c2.01-1.09,3.38-3.2,3.38-5.63,0-3.56-2.88-6.44-6.44-6.44s-6.44,2.88-6.44,6.44c0,2.58,1.53,4.77,3.7,5.81l.02,20.28c0,1.59,1.31,2.9,2.9,2.9h17.65l4.67,14.69c.38,1.23,1.53,2.01,2.76,2.01.28,0,.58-.04.89-.14,1.51-.48,2.35-2.11,1.87-3.62h0Z"/>
</svg>