<?xml version="1.0" encoding="UTF-8"?>
<svg id="Layer_1" xmlns="http://www.w3.org/2000/svg" version="1.1" viewBox="0 0 288.77 141.32">
  <!-- Generator: Adobe Illustrator 30.3.0, SVG Export Plug-In . SVG Version: 2.1.3 Build 182)  -->
  <defs>
    <style>
      .st0 {
        fill: #799a3d;
      }

      .st1 {
        fill: #5d6770;
      }

      .st2 {
        fill: #ee7623;
      }

      .st3 {
        fill: #4296b4;
      }
    </style>
  </defs>
  <g>
    <path class="st2" d="M206.89,58.53c0-1.53,1.07-2.45,2.14-.31s2.14,5.66,3.83,6.12c1.38.31,2.3-.15,3.37-1.53,1.22-1.53,2.45-3.37,3.52-3.06s.61,2.6.31,4.9c-.31,1.99-.31,3.98.61,5.2,1.22,1.53,4.9,1.22,8.26,1.22,4.9-.15,9.64-.31,10.1,1.22.46,1.68-3.67,3.37-7.5,5.36-2.6,1.38-4.74,2.75-5.66,4.44-1.38,2.6.92,6.12,2.6,9.33,1.68,3.21.15,4.28-1.68,3.06-12.7-7.96-20.05-20.96-19.89-35.96"/>
    <path class="st3" d="M268.56,40.17c-11.94,0-19.89,9.79-20.51,17.75h0s1.38,0,2.6-2.3c3.37-5.97,10.25-8.72,17.14-7.65,7.8,1.38,11.48,8.11,11.32,14.08,0,6.43-2.45,11.32-7.65,11.32-2.75,0-5.05-2.3-5.05-4.9,0-2.75,2.3-5.05,5.05-5.05,1.68,0,2.91.77,3.83,1.99.15.15.46.15.46-.15-.31-5.51-3.98-10.1-11.32-10.1-7.96,0-13.93,6.89-14.08,14.84,0,2.91.77,5.81,1.99,8.26h0c3.67,7.19,8.88,12.7,15.91,16.68,14.54-8.42,20.51-23.72,20.51-34.28.31-11.02-8.57-20.51-20.2-20.51Z"/>
    <path class="st0" d="M285.24,41.7c-6.73-14.08-20.96-23.57-37.19-23.57s-30.76,9.79-37.34,23.87c0,0-.92,1.99-1.68,4.44-2.6,8.42,5.81,10.56,6.89,3.06.46-3.06-.15-4.9,1.68-7.5,2.75-3.37,7.04-5.51,11.78-5.51,8.42,0,14.23,6.27,15.3,12.7-.92.15-1.84-.61-2.45-1.38-.77-.77-3.67-3.52-8.88-3.52-5.81,0-9.95,3.67-11.78,8.11-.15.15,0,.46.31.31h0c1.53-.61,3.06-1.07,4.9-1.22,3.21-.15,8.26.46,12.55,5.05,2.45,2.75,4.44,2.14,4.44,2.14.15-3.67,1.68-7.35,1.99-8.11,4.59-10.86-.31-17.6-10.86-18.06-4.13-.15-7.5,1.07-9.33,1.68,0,0-.92.46-1.22-.15-.31-.61.77-1.07.77-1.07,3.21-1.84,6.89-2.6,10.56-2.6,9.95,0,12.7,4.9,14.23,7.04,4.13,6.12,12.7.92,6.12-5.51-3.37-2.75-7.8-5.51-17.6-5.51-5.51,0-11.02,2.14-15.3,5.05,0,0-.92.61-1.38.15-.31-.46.46-1.22.46-1.22,4.9-3.83,11.78-6.58,18.52-6.58,7.65,0,14.38,2.45,19.74,6.89,3.83,3.21,7.35,4.74,11.32,5.36,5.36.77,9.03,2.6,12.85,5.81.46.31.61.15.61-.15Z"/>
    <path class="st0" d="M270.09,21.81s0,.15,0,0c.15.31.46.31.46,0h0c1.68-6.27-1.07-12.7-6.58-14.23l-10.41-3.21c-2.91-.92-4.44-2.3-5.36-4.13h0c-.15-.31-.31-.31-.46,0h0c-1.68,6.27,1.07,12.55,6.58,14.23l9.18,2.75c3.52,1.22,5.36,2.45,6.58,4.59h0Z"/>
  </g>
  <g>
    <path class="st1" d="M226.94,101.53c-3.67,0-6.89,1.53-9.18,4.13l-.15.31-.15-.31c-2.14-2.6-5.51-4.13-9.18-4.13-7.65,0-13.16,5.36-13.16,13.01v16.83h7.04v-16.99c0-3.52,2.45-5.97,5.97-5.97,5.2,0,5.81,4.13,5.81,5.97v16.99h7.04v-16.99c0-3.37,2.6-5.97,5.97-5.97,5.36,0,5.81,4.59,5.81,5.97v16.99h7.04v-16.83c0-7.96-5.05-13.01-12.85-13.01Z"/>
    <rect class="st1" x="151.8" y="102.3" width="6.73" height="29.07"/>
    <path class="st1" d="M14.84,101.53c-8.11,0-14.84,6.89-14.84,15.3s6.58,15.3,14.84,15.3c4.13,0,6.43-1.68,8.11-3.52v2.91h6.58v-14.69c.15-8.57-6.43-15.3-14.69-15.3ZM14.84,125.4c-4.44,0-7.96-3.83-7.96-8.72s3.52-8.72,7.96-8.72,7.96,3.83,7.96,8.72c.15,4.9-3.52,8.72-7.96,8.72Z"/>
    <path class="st1" d="M87.84,116.68c0,4.74-2.45,8.72-7.35,8.72s-7.35-3.83-7.35-8.72v-14.54h-6.73v14.54c0,9.33,5.97,15.3,14.08,15.3s14.08-5.97,14.08-15.3v-14.54h-6.73v14.54h0Z"/>
    <path class="st1" d="M132.21,116.83v14.54h6.73v-14.54c0-6.43,3.52-8.11,8.26-8.26v-6.27c-9.33,0-15,4.59-15,14.54Z"/>
    <path class="st1" d="M184.55,116.68c0,4.74-2.45,8.72-7.35,8.72s-7.35-3.83-7.35-8.72v-14.54h-6.73v14.54c0,9.33,5.97,15.3,14.08,15.3s14.08-5.97,14.08-15.3v-14.54h-6.73v14.54Z"/>
    <path class="st1" d="M62.89,141.32v-24.64c0-8.42-6.58-15.3-14.84-15.3s-14.84,6.89-14.84,15.3,6.58,15.3,14.84,15.3c4.13,0,6.43-1.68,8.11-3.52v12.85h6.73ZM48.05,125.4c-4.44,0-7.96-3.83-7.96-8.72s3.52-8.72,7.96-8.72,7.96,3.83,7.96,8.72c.15,4.9-3.52,8.72-7.96,8.72Z"/>
    <path class="st1" d="M16.99,77.97h-3.37s-3.98,11.02-4.28,11.94c-.31-.92-4.28-11.94-4.28-11.94H1.53l6.12,16.83h3.37l6.12-16.83h-.15Z"/>
    <path class="st1" d="M18.82,86.54c0,4.9,3.67,8.88,8.42,8.88,1.99,0,3.83-.92,5.2-2.3v1.84h3.21v-8.42c0-4.9-3.67-8.88-8.42-8.88s-8.42,3.83-8.42,8.88ZM22.19,86.54c0-3.21,2.3-5.66,5.05-5.66s5.05,2.6,5.05,5.66-2.3,5.66-5.05,5.66c-2.91-.15-5.05-2.6-5.05-5.66Z"/>
    <path class="st1" d="M39.63,84.7v10.1h3.37v-10.25c0-2.14,1.84-3.83,4.13-3.83s4.13,1.68,4.13,3.83v10.25h3.21v-10.1c0-3.98-3.21-7.04-7.5-7.04-4.13,0-7.35,3.06-7.35,7.04Z"/>
    <path class="st1" d="M76.36,86.54c0,4.9,3.67,8.72,8.42,8.72s8.42-3.83,8.42-8.72-3.67-8.88-8.42-8.88-8.42,3.83-8.42,8.88ZM79.88,86.54c0-3.06,2.3-5.66,5.05-5.66s5.05,2.6,5.05,5.66-2.3,5.51-5.05,5.51-5.05-2.45-5.05-5.51Z"/>
    <path class="st1" d="M111.4,77.97h-3.21v10.1c0,2.14-1.68,3.83-4.13,3.83-2.3,0-4.13-1.68-4.13-3.83v-10.1h-3.37v10.1c0,3.98,3.21,7.04,7.5,7.04s7.5-3.06,7.5-7.04v-10.1h-.15Z"/>
    <path class="st1" d="M129.92,77.97h-3.37s-3.98,11.02-4.28,11.94c-.31-.92-4.28-11.94-4.28-11.94h-3.52l6.12,16.83h3.37l5.97-16.83h0Z"/>
    <path class="st1" d="M154.1,79.34c-1.53,1.38-2.3,3.21-2.3,5.66v9.95h3.37v-9.95c0-1.38.31-2.45,1.07-3.06.77-.77,1.99-1.07,3.52-.92h.46v-3.21h-.31c-2.14-.31-4.28.15-5.81,1.53Z"/>
    <path class="st1" d="M70.24,89.75c-.92,1.53-2.45,2.3-4.13,2.3-2.75,0-5.05-2.45-5.05-5.51s2.3-5.66,5.05-5.66c1.84,0,3.37.92,4.28,2.45h3.67c-1.22-3.52-4.13-5.66-7.8-5.66-4.59,0-8.42,3.98-8.42,8.88s3.83,8.72,8.42,8.72c3.67,0,6.73-2.14,7.8-5.51,0,0-3.83,0-3.83,0Z"/>
    <path class="st1" d="M144.46,89.75c-.92,1.53-2.3,2.45-4.28,2.45-2.14,0-4.59-1.53-5.2-4.59h13.47v-.46c0-2.75-.92-5.2-2.75-7.04-1.53-1.53-3.67-2.45-5.81-2.45-4.74,0-8.42,3.98-8.42,8.88s3.83,8.72,8.57,8.72c3.83,0,6.73-1.99,7.96-5.51h-3.52ZM139.87,80.72c2.14,0,3.98,1.53,4.74,3.67h-9.49c.92-2.45,3.06-3.67,4.74-3.67Z"/>
    <path class="st1" d="M249.43,131.37c-1.99,0-3.67-1.68-3.67-3.67s1.68-3.67,3.67-3.67,3.67,1.68,3.67,3.67c0,1.99-1.68,3.67-3.67,3.67ZM249.43,124.64c-1.68,0-2.91,1.38-2.91,3.06s1.38,3.06,2.91,3.06c1.68,0,2.91-1.38,2.91-3.06,0-1.68-1.38-3.06-2.91-3.06ZM251.27,129.54h-.92l-.77-1.38h-1.07v1.38h-.77v-4.13h1.99c.92,0,1.38.46,1.38,1.38,0,.61-.31,1.07-.92,1.22l1.07,1.53ZM249.89,127.39c.31,0,.61-.15.61-.61s-.31-.61-.61-.61h-1.22v1.22h1.22Z"/>
    <path class="st1" d="M112.93,101.53c-8.11,0-14.84,6.89-14.84,15.3s6.58,15.3,14.84,15.3c4.13,0,6.43-1.68,8.11-3.52v2.91h6.58v-14.69c.15-8.57-6.43-15.3-14.69-15.3ZM112.93,125.4c-4.44,0-7.96-3.83-7.96-8.72s3.67-8.72,7.96-8.72,7.96,3.83,7.96,8.72c.15,4.9-3.52,8.72-7.96,8.72Z"/>
  </g>
</svg>