<?xml version="1.0" encoding="UTF-8"?>
<svg id="Layer_1" data-name="Layer 1" xmlns="http://www.w3.org/2000/svg" viewBox="0 0 154 95">
  <defs>
    <style>
      .cls-1 {
        fill: #fff;
      }
    </style>
  </defs>
  <path class="cls-1" d="M88.51,87.54c-.09-.89-.03-1.68.21-2.35,2.36-6.21,7.07-9.43,7.07-9.43,0,0-10.09,1.93-9.77,12.16-2.94.4-5.95.61-9.03.61-.83,0-1.64-.02-2.46-.05-3.88-9.35-8.98-12.21-7.03-21.08,0,0,2.79-4.71,6.43-6,3.64-1.29,7.28,0,8.78,1.5,1.71,1.5,16.71-1.29,27.85,1.5,2.91.74,7.21,1.82,12.49,3.56-7.61,9.84-19.99,17.05-34.56,19.57ZM31.95,56.05c-.64.86-2.14-.21-1.71-1.29,3-7.07,10.28-16.5,15.85-21.21,7.93-6.86,16.71-12,16.71-12,2.14-4.29,7.28-7.71,13.93-7.28,6.64.43,8.36,8.14,8.36,8.14,1.93,8.57-3.86,18.43-6.21,23.14s-.86,12.43-.86,12.43c0,0-4.71-.43-6.86.86-2.14,1.07-4.07,4.5-4.29,4.71-1.5-6.86,1.5-14.14,2.36-18.85.86-4.93.64-7.28.43-9,5.57-1.71,6.43-4.29,6.43-4.29-3.86,2.14-7.07,1.5-8.14,1.29-.21-.21-.43-.21-.43-.21-23.57,3.86-28.92,16.28-35.57,23.57ZM70.73,22.41c0,1.29,1.07,2.14,2.14,2.14,1.29,0,2.14-.86,2.14-2.14s-1.07-2.14-2.14-2.14c-1.29,0-2.14.86-2.14,2.14Z"/>
</svg>